HIERARCHY
ROOT Hips
{
  OFFSET 0.000000 95.000000 0.000000
  CHANNELS 6 Xposition Yposition Zposition Zrotation Xrotation Yrotation
  JOINT Spine
  {
    OFFSET 0.000000 10.000000 0.000000
    CHANNELS 3 Zrotation Xrotation Yrotation
    JOINT Spine1
    {
      OFFSET 0.000000 12.000000 0.000000
      CHANNELS 3 Zrotation Xrotation Yrotation
      JOINT Spine2
      {
        OFFSET 0.000000 12.000000 0.000000
        CHANNELS 3 Zrotation Xrotation Yrotation
        JOINT Neck
        {
          OFFSET 0.000000 10.000000 0.000000
          CHANNELS 3 Zrotation Xrotation Yrotation
          JOINT Head
          {
            OFFSET 0.000000 8.000000 0.000000
            CHANNELS 3 Zrotation Xrotation Yrotation
            End Site
            {
              OFFSET 0.000000 10.000000 0.000000
            }
          }
        }
        JOINT LeftShoulder
        {
          OFFSET 6.000000 8.000000 0.000000
          CHANNELS 3 Zrotation Xrotation Yrotation
          JOINT LeftArm
          {
            OFFSET 12.000000 0.000000 0.000000
            CHANNELS 3 Zrotation Xrotation Yrotation
            JOINT LeftForeArm
            {
              OFFSET 24.000000 0.000000 0.000000
              CHANNELS 3 Zrotation Xrotation Yrotation
              JOINT LeftHand
              {
                OFFSET 22.000000 0.000000 0.000000
                CHANNELS 3 Zrotation Xrotation Yrotation
                JOINT LeftHandThumb1
                {
                  OFFSET 1.800000 -1.400000 0.500000
                  CHANNELS 3 Zrotation Xrotation Yrotation
                  JOINT LeftHandThumb2
                  {
                    OFFSET 2.400000 0.000000 0.000000
                    CHANNELS 3 Zrotation Xrotation Yrotation
                    JOINT LeftHandThumb3
                    {
                      OFFSET 1.900000 0.000000 0.000000
                      CHANNELS 3 Zrotation Xrotation Yrotation
                      End Site
                      {
                        OFFSET 1.600000 0.000000 0.000000
                      }
                    }
                  }
                }
                JOINT LeftHandIndex1
                {
                  OFFSET 6.600000 1.200000 0.300000
                  CHANNELS 3 Zrotation Xrotation Yrotation
                  JOINT LeftHandIndex2
                  {
                    OFFSET 2.000000 0.000000 0.000000
                    CHANNELS 3 Zrotation Xrotation Yrotation
                    JOINT LeftHandIndex3
                    {
                      OFFSET 1.200000 0.000000 0.000000
                      CHANNELS 3 Zrotation Xrotation Yrotation
                      End Site
                      {
                        OFFSET 1.000000 0.000000 0.000000
                      }
                    }
                  }
                }
                JOINT LeftHandMiddle1
                {
                  OFFSET 7.200000 0.000000 0.300000
                  CHANNELS 3 Zrotation Xrotation Yrotation
                  JOINT LeftHandMiddle2
                  {
                    OFFSET 3.000000 0.000000 0.000000
                    CHANNELS 3 Zrotation Xrotation Yrotation
                    JOINT LeftHandMiddle3
                    {
                      OFFSET 2.000000 0.000000 0.000000
                      CHANNELS 3 Zrotation Xrotation Yrotation
                      End Site
                      {
                        OFFSET 1.600000 0.000000 0.000000
                      }
                    }
                  }
                }
                JOINT LeftHandRing1
                {
                  OFFSET 7.100000 -1.000000 0.400000
                  CHANNELS 3 Zrotation Xrotation Yrotation
                  JOINT LeftHandRing2
                  {
                    OFFSET 2.600000 0.000000 0.000000
                    CHANNELS 3 Zrotation Xrotation Yrotation
                    JOINT LeftHandRing3
                    {
                      OFFSET 1.600000 0.000000 0.000000
                      CHANNELS 3 Zrotation Xrotation Yrotation
                      End Site
                      {
                        OFFSET 1.300000 0.000000 0.000000
                      }
                    }
                  }
                }
                JOINT LeftHandPinky1
                {
                  OFFSET 6.500000 -2.000000 0.500000
                  CHANNELS 3 Zrotation Xrotation Yrotation
                  JOINT LeftHandPinky2
                  {
                    OFFSET 1.900000 0.000000 0.000000
                    CHANNELS 3 Zrotation Xrotation Yrotation
                    JOINT LeftHandPinky3
                    {
                      OFFSET 1.400000 0.000000 0.000000
                      CHANNELS 3 Zrotation Xrotation Yrotation
                      End Site
                      {
                        OFFSET 1.300000 0.000000 0.000000
                      }
                    }
                  }
                }
              }
            }
          }
        }
        JOINT RightShoulder
        {
          OFFSET -6.000000 8.000000 0.000000
          CHANNELS 3 Zrotation Xrotation Yrotation
          JOINT RightArm
          {
            OFFSET -12.000000 0.000000 0.000000
            CHANNELS 3 Zrotation Xrotation Yrotation
            JOINT RightForeArm
            {
              OFFSET -24.000000 0.000000 0.000000
              CHANNELS 3 Zrotation Xrotation Yrotation
              JOINT RightHand
              {
                OFFSET -22.000000 0.000000 0.000000
                CHANNELS 3 Zrotation Xrotation Yrotation
                JOINT RightHandThumb1
                {
                  OFFSET -1.800000 -1.400000 0.500000
                  CHANNELS 3 Zrotation Xrotation Yrotation
                  JOINT RightHandThumb2
                  {
                    OFFSET -2.400000 0.000000 0.000000
                    CHANNELS 3 Zrotation Xrotation Yrotation
                    JOINT RightHandThumb3
                    {
                      OFFSET -1.900000 0.000000 0.000000
                      CHANNELS 3 Zrotation Xrotation Yrotation
                      End Site
                      {
                        OFFSET -1.600000 0.000000 0.000000
                      }
                    }
                  }
                }
                JOINT RightHandIndex1
                {
                  OFFSET -6.600000 1.200000 0.300000
                  CHANNELS 3 Zrotation Xrotation Yrotation
                  JOINT RightHandIndex2
                  {
                    OFFSET -2.000000 0.000000 0.000000
                    CHANNELS 3 Zrotation Xrotation Yrotation
                    JOINT RightHandIndex3
                    {
                      OFFSET -1.200000 0.000000 0.000000
                      CHANNELS 3 Zrotation Xrotation Yrotation
                      End Site
                      {
                        OFFSET -1.000000 0.000000 0.000000
                      }
                    }
                  }
                }
                JOINT RightHandMiddle1
                {
                  OFFSET -7.200000 0.000000 0.300000
                  CHANNELS 3 Zrotation Xrotation Yrotation
                  JOINT RightHandMiddle2
                  {
                    OFFSET -3.000000 0.000000 0.000000
                    CHANNELS 3 Zrotation Xrotation Yrotation
                    JOINT RightHandMiddle3
                    {
                      OFFSET -2.000000 0.000000 0.000000
                      CHANNELS 3 Zrotation Xrotation Yrotation
                      End Site
                      {
                        OFFSET -1.600000 0.000000 0.000000
                      }
                    }
                  }
                }
                JOINT RightHandRing1
                {
                  OFFSET -7.100000 -1.000000 0.400000
                  CHANNELS 3 Zrotation Xrotation Yrotation
                  JOINT RightHandRing2
                  {
                    OFFSET -2.600000 0.000000 0.000000
                    CHANNELS 3 Zrotation Xrotation Yrotation
                    JOINT RightHandRing3
                    {
                      OFFSET -1.600000 0.000000 0.000000
                      CHANNELS 3 Zrotation Xrotation Yrotation
                      End Site
                      {
                        OFFSET -1.300000 0.000000 0.000000
                      }
                    }
                  }
                }
                JOINT RightHandPinky1
                {
                  OFFSET -6.500000 -2.000000 0.500000
                  CHANNELS 3 Zrotation Xrotation Yrotation
                  JOINT RightHandPinky2
                  {
                    OFFSET -1.900000 0.000000 0.000000
                    CHANNELS 3 Zrotation Xrotation Yrotation
                    JOINT RightHandPinky3
                    {
                      OFFSET -1.400000 0.000000 0.000000
                      CHANNELS 3 Zrotation Xrotation Yrotation
                      End Site
                      {
                        OFFSET -1.300000 0.000000 0.000000
                      }
                    }
                  }
                }
              }
            }
          }
        }
      }
    }
  }
  JOINT LeftUpLeg
  {
    OFFSET 10.000000 -5.000000 0.000000
    CHANNELS 3 Zrotation Xrotation Yrotation
    JOINT LeftLeg
    {
      OFFSET 0.000000 -42.000000 0.000000
      CHANNELS 3 Zrotation Xrotation Yrotation
      JOINT LeftFoot
      {
        OFFSET 0.000000 -42.000000 4.000000
        CHANNELS 3 Zrotation Xrotation Yrotation
        End Site
        {
          OFFSET 0.000000 0.000000 12.000000
        }
      }
    }
  }
  JOINT RightUpLeg
  {
    OFFSET -10.000000 -5.000000 0.000000
    CHANNELS 3 Zrotation Xrotation Yrotation
    JOINT RightLeg
    {
      OFFSET 0.000000 -42.000000 0.000000
      CHANNELS 3 Zrotation Xrotation Yrotation
      JOINT RightFoot
      {
        OFFSET 0.000000 -42.000000 4.000000
        CHANNELS 3 Zrotation Xrotation Yrotation
        End Site
        {
          OFFSET 0.000000 0.000000 12.000000
        }
      }
    }
  }
}
MOTION
Frames: 8
Frame Time: 0.033333
0.0000 95.0000 0.0000 0.0000 0.0000 0.0000 0.0000 0.0000 0.0000 0.0000 0.0000 0.0000 0.0000 0.0000 0.0000 0.0000 0.0000 0.0000 0.0000 0.0000 0.0000 0.0000 0.0000 0.0000 -62.6725 -12.2106 -19.9272 49.5710 67.9823 -32.2139 422.8753 18.9248 -279.7741 61.7618 -12.8167 1.2061 12.1873 0.0000 0.0000 11.1717 0.0000 0.0000 -1.1080 0.1262 -0.4419 4.5588 0.0000 0.0000 3.6231 0.0000 0.0000 -0.3089 0.0196 2.4816 1.9683 0.0000 0.0000 2.4435 0.0000 0.0000 8.1377 -0.2032 3.6482 1.7560 0.0000 0.0000 3.4941 0.0000 0.0000 12.6461 0.0904 5.4302 1.3512 0.0000 0.0000 3.7940 0.0000 0.0000 0.0000 0.0000 0.0000 78.2506 -13.8165 16.9441 268.7568 65.6659 350.5347 296.6548 22.9354 -80.1149 -64.7066 -12.6578 -10.4793 7.4006 0.0000 0.0000 15.9469 0.0000 0.0000 5.9348 -0.2807 -4.2518 3.6887 0.0000 0.0000 2.6361 0.0000 0.0000 7.6982 0.5364 -3.1881 4.9531 0.0000 0.0000 0.8456 0.0000 0.0000 -2.1841 0.2437 -3.0131 3.5568 0.0000 0.0000 1.6867 0.0000 0.0000 -10.6286 -0.4381 -1.7225 2.0176 0.0000 0.0000 2.0909 0.0000 0.0000 0.0000 0.0000 0.0000 0.0000 0.0000 0.0000 0.0000 0.0000 0.0000 0.0000 0.0000 0.0000 0.0000 0.0000 0.0000 0.0000 0.0000 0.0000
0.0000 95.0000 0.0000 0.0000 0.0000 0.0000 0.0000 0.0000 0.0000 0.0000 0.0000 0.0000 0.0000 0.0000 0.0000 0.0000 0.0000 0.0000 0.0000 0.0000 0.0000 0.0000 0.0000 0.0000 -62.9570 -12.4042 -20.1287 55.7188 65.1847 -24.9147 424.2871 19.6331 -283.4541 61.6518 -12.9030 0.1517 11.8628 0.0000 0.0000 7.9829 0.0000 0.0000 -2.1078 0.0896 0.0363 3.8423 0.0000 0.0000 3.4706 0.0000 0.0000 -0.0987 0.0066 2.9094 1.5640 0.0000 0.0000 2.3075 0.0000 0.0000 8.3416 -0.1758 4.3197 1.4484 0.0000 0.0000 2.9324 0.0000 0.0000 13.5454 0.0345 5.7245 0.8649 0.0000 0.0000 2.7437 0.0000 0.0000 0.0000 0.0000 0.0000 78.7976 -13.5629 16.4755 268.4509 65.3451 350.3513 295.4424 19.1033 -78.2707 -63.9423 -12.7076 -7.4361 6.3218 0.0000 0.0000 12.0545 0.0000 0.0000 3.9962 -0.2218 -2.7536 2.8359 0.0000 0.0000 4.1773 0.0000 0.0000 4.2379 0.3139 -3.6974 5.4680 0.0000 0.0000 1.5578 0.0000 0.0000 -4.4999 -0.0250 -2.2504 4.3070 0.0000 0.0000 2.8080 0.0000 0.0000 -5.4147 -1.2991 3.4714 10.9327 0.0000 0.0000 5.0815 0.0000 0.0000 0.0000 0.0000 0.0000 0.0000 0.0000 0.0000 0.0000 0.0000 0.0000 0.0000 0.0000 0.0000 0.0000 0.0000 0.0000 0.0000 0.0000 0.0000
0.0000 95.0000 0.0000 0.0000 0.0000 0.0000 0.0000 0.0000 0.0000 0.0000 0.0000 0.0000 0.0000 0.0000 0.0000 0.0000 0.0000 0.0000 0.0000 0.0000 0.0000 0.0000 0.0000 0.0000 -63.0115 -12.4275 -20.1451 57.7155 63.7817 -22.4217 424.1156 17.8309 -287.0382 61.9658 -12.9424 0.3096 13.5246 0.0000 0.0000 10.2504 0.0000 0.0000 -1.1871 0.1371 -0.4867 4.2738 0.0000 0.0000 3.5046 0.0000 0.0000 -0.4192 0.0280 2.8745 1.8956 0.0000 0.0000 2.0238 0.0000 0.0000 7.4956 -0.1150 4.0737 1.1923 0.0000 0.0000 2.6399 0.0000 0.0000 11.8473 0.2013 5.4956 1.3079 0.0000 0.0000 3.2660 0.0000 0.0000 0.0000 0.0000 0.0000 79.3507 -13.5425 16.2921 266.0915 64.8802 348.4387 293.9404 19.0920 -78.4330 -63.2438 -12.4978 -7.9087 7.0292 0.0000 0.0000 11.5934 0.0000 0.0000 6.1001 0.0941 -1.4208 3.9440 0.0000 0.0000 3.0751 0.0000 0.0000 6.1424 0.3839 -2.3741 5.0228 0.0000 0.0000 1.2715 0.0000 0.0000 -2.1143 0.0146 -1.0926 3.8605 0.0000 0.0000 3.0471 0.0000 0.0000 -3.2011 -1.4206 4.2543 7.9388 0.0000 0.0000 5.9759 0.0000 0.0000 0.0000 0.0000 0.0000 0.0000 0.0000 0.0000 0.0000 0.0000 0.0000 0.0000 0.0000 0.0000 0.0000 0.0000 0.0000 0.0000 0.0000 0.0000
0.0000 95.0000 0.0000 0.0000 0.0000 0.0000 0.0000 0.0000 0.0000 0.0000 0.0000 0.0000 0.0000 0.0000 0.0000 0.0000 0.0000 0.0000 0.0000 0.0000 0.0000 0.0000 0.0000 0.0000 -63.3553 -12.1753 -19.6115 58.6150 63.8889 -21.9756 423.9931 18.0458 -287.7413 61.2952 -12.7983 0.5583 12.7929 0.0000 0.0000 9.5628 0.0000 0.0000 -1.7717 0.1748 -0.5701 3.5654 0.0000 0.0000 3.4854 0.0000 0.0000 0.0425 -0.0029 2.9722 1.7376 0.0000 0.0000 2.4375 0.0000 0.0000 7.7869 -0.1390 4.1107 1.3123 0.0000 0.0000 2.9950 0.0000 0.0000 12.8303 -0.0058 5.0422 1.1281 0.0000 0.0000 2.9931 0.0000 0.0000 0.0000 0.0000 0.0000 79.6570 -13.5021 16.1568 265.3964 65.1686 347.8868 294.5291 18.2918 -77.8518 -62.7731 -12.4758 -6.9145 6.2831 0.0000 0.0000 12.7545 0.0000 0.0000 6.4063 0.2068 -0.6571 4.8646 0.0000 0.0000 4.9092 0.0000 0.0000 6.6268 0.4050 -2.2157 6.6337 0.0000 0.0000 1.3141 0.0000 0.0000 -3.2320 -0.0052 -1.5707 4.2931 0.0000 0.0000 2.2912 0.0000 0.0000 -5.8863 -0.9175 1.8730 7.2927 0.0000 0.0000 4.4884 0.0000 0.0000 0.0000 0.0000 0.0000 0.0000 0.0000 0.0000 0.0000 0.0000 0.0000 0.0000 0.0000 0.0000 0.0000 0.0000 0.0000 0.0000 0.0000 0.0000
0.0000 95.0000 0.0000 0.0000 0.0000 0.0000 0.0000 0.0000 0.0000 0.0000 0.0000 0.0000 0.0000 0.0000 0.0000 0.0000 0.0000 0.0000 0.0000 0.0000 0.0000 0.0000 0.0000 0.0000 -63.9904 -12.2727 -19.5283 61.3269 63.7226 -19.3917 424.2761 18.0638 -286.8462 61.5101 -12.7924 0.9908 13.1151 0.0000 0.0000 9.5315 0.0000 0.0000 -1.7670 0.1659 -0.5175 3.7646 0.0000 0.0000 3.1799 0.0000 0.0000 -0.1615 0.0105 2.6473 1.9105 0.0000 0.0000 2.2599 0.0000 0.0000 7.4385 -0.1480 3.5664 1.4073 0.0000 0.0000 3.0566 0.0000 0.0000 12.3366 -0.0595 4.4628 0.9131 0.0000 0.0000 3.5627 0.0000 0.0000 0.0000 0.0000 0.0000 79.8450 -13.1256 15.6563 265.1350 66.0848 348.1126 294.3299 19.5907 -78.6076 -63.9697 -12.6749 -7.9100 8.0599 0.0000 0.0000 15.5897 0.0000 0.0000 7.1180 0.1195 -1.6989 5.3904 0.0000 0.0000 5.2178 0.0000 0.0000 7.0078 0.4801 -3.0562 5.7060 0.0000 0.0000 1.8439 0.0000 0.0000 -1.8999 0.2066 -2.5252 4.4927 0.0000 0.0000 1.9194 0.0000 0.0000 -5.1132 -0.6545 1.0277 7.1857 0.0000 0.0000 5.3544 0.0000 0.0000 0.0000 0.0000 0.0000 0.0000 0.0000 0.0000 0.0000 0.0000 0.0000 0.0000 0.0000 0.0000 0.0000 0.0000 0.0000 0.0000 0.0000 0.0000
0.0000 95.0000 0.0000 0.0000 0.0000 0.0000 0.0000 0.0000 0.0000 0.0000 0.0000 0.0000 0.0000 0.0000 0.0000 0.0000 0.0000 0.0000 0.0000 0.0000 0.0000 0.0000 0.0000 0.0000 -64.2749 -12.3402 -19.5284 60.4775 63.9683 -19.9813 423.1139 17.9299 -286.9281 64.6065 -13.4412 -0.1611 14.4629 0.0000 0.0000 11.1212 0.0000 0.0000 -3.3189 0.4020 -1.6581 6.9119 0.0000 0.0000 4.9803 0.0000 0.0000 -2.6170 0.1663 2.4974 2.8780 0.0000 0.0000 2.9120 0.0000 0.0000 6.5922 -0.0934 3.3353 0.1594 0.0000 0.0000 3.3206 0.0000 0.0000 11.1206 0.0652 4.3958 3.1947 0.0000 0.0000 2.4313 0.0000 0.0000 0.0000 0.0000 0.0000 79.7745 -13.2244 15.7932 265.3287 66.2105 348.1739 296.9760 19.8791 -73.6137 -65.0233 -12.9846 -7.1843 7.2837 0.0000 0.0000 13.3858 0.0000 0.0000 11.2905 1.0280 6.4320 45.8393 0.0000 0.0000 32.3941 0.0000 0.0000 8.3039 0.3663 -0.2706 24.4891 0.0000 0.0000 10.7422 0.0000 0.0000 0.8504 0.0100 0.2561 13.7817 0.0000 0.0000 5.2469 0.0000 0.0000 -0.9924 -0.3488 0.9149 29.2437 0.0000 0.0000 14.5113 0.0000 0.0000 0.0000 0.0000 0.0000 0.0000 0.0000 0.0000 0.0000 0.0000 0.0000 0.0000 0.0000 0.0000 0.0000 0.0000 0.0000 0.0000 0.0000 0.0000
0.0000 95.0000 0.0000 0.0000 0.0000 0.0000 0.0000 0.0000 0.0000 0.0000 0.0000 0.0000 0.0000 0.0000 0.0000 0.0000 0.0000 0.0000 0.0000 0.0000 0.0000 0.0000 0.0000 0.0000 -64.6262 -12.7212 -19.9905 53.5865 62.8990 -24.1075 484.5221 26.4010 -283.6852 95.1564 -9.1515 -49.4037 18.0009 0.0000 0.0000 27.4225 0.0000 0.0000 42.6270 21.9680 -38.7528 51.3342 0.0000 0.0000 13.5129 0.0000 0.0000 61.8727 29.1549 -51.6843 35.8791 0.0000 0.0000 10.8807 0.0000 0.0000 72.0937 29.2216 -59.7008 28.1030 0.0000 0.0000 9.2566 0.0000 0.0000 78.8436 25.5714 -69.9433 23.9284 0.0000 0.0000 7.1407 0.0000 0.0000 0.0000 0.0000 0.0000 79.4789 -13.9568 16.7507 271.9375 65.3135 352.0849 318.7111 36.6847 -55.2328 -89.1533 -13.5728 29.5685 22.3680 0.0000 0.0000 3.5028 0.0000 0.0000 36.1135 -6.6032 56.4094 45.9755 0.0000 0.0000 9.7263 0.0000 0.0000 39.7343 -23.8068 65.2869 33.1249 0.0000 0.0000 7.7342 0.0000 0.0000 34.2692 -23.3125 52.2770 44.2454 0.0000 0.0000 11.7586 0.0000 0.0000 31.8445 -21.1977 36.8314 54.3684 0.0000 0.0000 13.0851 0.0000 0.0000 0.0000 0.0000 0.0000 0.0000 0.0000 0.0000 0.0000 0.0000 0.0000 0.0000 0.0000 0.0000 0.0000 0.0000 0.0000 0.0000 0.0000 0.0000
0.0000 95.0000 0.0000 0.0000 0.0000 0.0000 0.0000 0.0000 0.0000 0.0000 0.0000 0.0000 0.0000 0.0000 0.0000 0.0000 0.0000 0.0000 0.0000 0.0000 0.0000 0.0000 0.0000 0.0000 -64.1352 -13.0650 -20.7158 43.5165 60.5748 -30.4517 308.1402 45.8433 -398.4348 70.9159 -15.1795 -35.7817 7.2588 0.0000 0.0000 24.4113 0.0000 0.0000 -22.2695 0.4134 -37.9100 6.4596 0.0000 0.0000 4.2325 0.0000 0.0000 -17.8586 -6.1539 -42.5458 10.4430 0.0000 0.0000 6.7526 0.0000 0.0000 -12.3832 -9.9238 -41.0868 13.0507 0.0000 0.0000 3.8670 0.0000 0.0000 -16.1251 -12.4830 -29.3564 19.7618 0.0000 0.0000 10.0649 0.0000 0.0000 0.0000 0.0000 0.0000 78.5819 -14.2884 17.4183 283.7656 64.4995 360.3772 400.8711 37.2692 23.4113 -43.4844 -16.1610 24.9867 18.3421 0.0000 0.0000 1.8187 0.0000 0.0000 33.1692 -1.7042 28.4312 11.5147 0.0000 0.0000 7.8465 0.0000 0.0000 24.9533 -6.5096 33.5992 16.0194 0.0000 0.0000 7.4135 0.0000 0.0000 16.3976 -7.8080 29.8706 18.3214 0.0000 0.0000 7.3329 0.0000 0.0000 10.2652 -9.1124 24.3373 19.4090 0.0000 0.0000 11.7581 0.0000 0.0000 0.0000 0.0000 0.0000 0.0000 0.0000 0.0000 0.0000 0.0000 0.0000 0.0000 0.0000 0.0000 0.0000 0.0000 0.0000 0.0000 0.0000 0.0000
